<svg width="280" height="280" viewBox="0 0 280 280" fill="none" xmlns="http://www.w3.org/2000/svg">
<g clip-path="url(#clip0_106_378)">
<mask id="mask0_106_378" style="mask-type:luminance" maskUnits="userSpaceOnUse" x="0" y="0" width="280" height="280">
<path d="M186.64 6.55402e-05L0 92.7659L92.7658 279.406L279.406 186.64L186.64 6.55402e-05Z" fill="white"/>
</mask>
<g mask="url(#mask0_106_378)">
<path d="M92.1345 49.121C91.3884 46.6269 94.6809 44.9904 96.2184 47.0912L113.167 70.2444C114.518 72.0901 117.437 71.0727 117.347 68.7875L116.206 40.1248C116.103 37.5241 119.7 36.7596 120.668 39.1762L131.339 65.8129C132.19 67.9366 135.271 67.6784 135.751 65.4431L141.766 37.4078C142.312 34.8644 145.987 35.0195 146.325 37.6004L150.048 66.0468C150.345 68.3149 153.395 68.832 154.415 66.7872L167.207 41.1414C168.368 38.8147 171.891 39.8798 171.577 42.4629L168.118 70.9317C167.843 73.2013 170.669 74.4613 172.166 72.7355L190.932 51.0906C192.635 49.1267 195.784 51.0348 194.837 53.4578L184.414 80.1602C183.584 82.289 186.01 84.2128 187.888 82.9143L211.448 66.6302C213.586 65.1527 216.164 67.7841 214.645 69.8944L197.913 93.1526C196.579 95.0068 198.452 97.4733 200.594 96.6842L227.469 86.7836C229.907 85.8854 231.75 89.0751 229.755 90.74L207.765 109.092C206.011 110.556 207.213 113.41 209.485 113.179L237.985 110.285C240.571 110.023 241.564 113.569 239.218 114.686L213.351 126.979C211.288 127.959 211.745 131.022 214.004 131.364L242.338 135.658C244.908 136.048 244.99 139.729 242.439 140.224L214.321 145.687C212.079 146.123 211.76 149.201 213.864 150.095L240.253 161.307C242.647 162.325 241.811 165.909 239.216 165.754L210.614 164.042C208.333 163.906 207.259 166.808 209.076 168.196L231.86 185.622C233.928 187.203 232.228 190.465 229.753 189.669L202.463 180.891C200.287 180.19 198.525 182.733 199.941 184.53L217.689 207.073C219.3 209.119 216.841 211.855 214.641 210.468L190.379 195.173C188.444 193.954 186.106 195.976 187.031 198.069L198.629 224.316C199.682 226.696 196.62 228.734 194.833 226.842L175.123 205.993C173.551 204.332 170.783 205.708 171.159 207.964L175.878 236.263C176.306 238.83 172.834 240.041 171.571 237.765L157.652 212.671C156.542 210.67 153.518 211.313 153.322 213.592L150.865 242.167C150.642 244.759 146.977 245.066 146.319 242.547L139.065 214.787C138.486 212.574 135.396 212.443 134.641 214.6L125.162 241.654C124.301 244.108 120.674 243.494 120.662 240.891L120.529 212.207C120.518 209.92 117.556 209.024 116.288 210.924L100.383 234.758C98.9401 236.92 95.5784 235.422 96.213 232.899L103.209 205.094C103.767 202.877 101.119 201.273 99.4187 202.797L78.0867 221.912C76.1514 223.647 73.2662 221.359 74.5078 219.074L88.1935 193.896C89.2847 191.888 87.118 189.675 85.0917 190.728L59.6736 203.924C57.367 205.121 55.1397 202.188 56.9101 200.285L76.4256 179.314C77.9816 177.642 76.4321 174.961 74.2069 175.474L46.2996 181.923C43.7676 182.508 42.338 179.113 44.5263 177.712L68.6453 162.267C70.5682 161.035 69.7327 158.053 67.4491 157.997L38.8061 157.292C36.2073 157.228 35.6654 153.585 38.1338 152.773L65.3408 143.824C67.5099 143.111 67.4413 140.015 65.2424 139.392L37.6635 131.578C35.1613 130.869 35.5411 127.207 38.1346 127.035L66.7201 125.145C68.9992 124.994 69.7014 121.98 67.7257 120.83L42.9437 106.397C40.6952 105.088 41.9729 101.637 44.5286 102.116L72.6964 107.404C74.9422 107.825 76.3714 105.082 74.7428 103.476L54.3149 83.3321C52.4616 81.5045 54.5568 78.4812 56.914 79.582L82.8942 91.7143C84.9656 92.6816 87.0319 90.3812 85.8528 88.4208L71.0627 63.8315C69.7207 61.6006 72.502 59.1952 74.5125 60.8479L96.6729 79.0629C98.4396 80.5152 101.013 78.8024 100.358 76.6108L92.1345 49.121Z" fill="#7EFFC9"/>
</g>
<path d="M102.193 157.33L105.067 155.902L101.328 148.38L101.362 148.363L107.349 154.768L109.479 153.709L107.988 145.07L108.022 145.053L111.76 152.575L114.634 151.146L108.627 139.061L104.908 140.909L106.255 149.852L106.221 149.869L99.9049 143.396L96.1862 145.244L102.193 157.33ZM108.538 139.105L116.383 144.712L118.601 149.175L121.644 147.662L119.426 143.2L119.711 133.552L116.499 135.148L116.603 141.294L116.569 141.311L111.749 137.509L108.538 139.105ZM121.756 132.535L130.839 143.092L133.882 141.58L131.944 133.142L131.977 133.125L137.533 139.765L140.576 138.253L137.645 124.638L134.603 126.15L137.122 135.121L137.088 135.138L131.137 127.872L128.264 129.301L130.462 138.431L130.428 138.448L124.799 131.023L121.756 132.535ZM149.181 134.313C152.985 132.422 153.838 128.668 152.023 125.017C150.217 121.383 146.709 119.796 142.906 121.686C139.068 123.593 138.249 127.331 140.055 130.965C141.87 134.616 145.344 136.22 149.181 134.313ZM147.946 131.828C145.732 132.928 144.148 131.566 143.098 129.453C142.056 127.357 141.926 125.271 144.141 124.171C146.338 123.079 147.939 124.433 148.98 126.529C150.031 128.642 150.144 130.736 147.946 131.828ZM155.775 130.698L158.818 129.186L156.726 124.977L158.619 124.036C161.205 122.751 161.946 126.998 162.79 127.211L165.951 125.64L165.867 125.471C165.073 125.613 163.845 120.385 160.559 121.365L160.542 121.331C161.878 120.245 162.321 118.76 161.522 117.154C160.388 114.873 158.152 114.445 155.465 115.781L149.768 118.612L155.775 130.698ZM154.046 119.585L156.108 118.56C157.325 117.955 158.186 118.075 158.69 119.089C159.194 120.103 158.77 120.862 157.553 121.467L155.491 122.492L154.046 119.585ZM160.686 113.186L166.693 125.272L169.736 123.759L168.148 120.565L168.676 118.574L174.114 121.583L177.663 119.819L169.536 115.427L171.487 107.817L167.938 109.582L166.165 116.575L163.729 111.673L160.686 113.186ZM125.078 155.896C124.053 153.833 122.248 153.508 119.729 154.76L113.864 157.675L119.871 169.761L125.905 166.762C128.407 165.518 129.551 163.706 128.274 161.137C127.375 159.328 125.873 159.021 124.496 159.431L124.479 159.397C125.308 158.564 125.818 157.383 125.078 155.896ZM119.334 161.048L118.141 158.648L120.237 157.606C121.082 157.186 121.859 157.053 122.355 158.05C122.851 159.047 122.275 159.586 121.43 160.006L119.334 161.048ZM120.258 162.907L122.439 161.824C123.707 161.194 124.492 161.162 125.055 162.294C125.618 163.427 125.127 164.05 123.859 164.68L121.678 165.764L120.258 162.907ZM130.126 155.368L129.059 153.221L135.178 150.18L133.943 147.695L124.781 152.249L130.788 164.335L140.051 159.731L138.816 157.246L132.596 160.338L131.361 157.853L136.635 155.232L135.4 152.747L130.126 155.368ZM134.973 147.183L140.98 159.269L149.398 155.085L148.163 152.601L142.788 155.272L138.016 145.671L134.973 147.183ZM155.314 152.482C159.117 150.592 159.97 146.837 158.155 143.186C156.349 139.552 152.841 137.965 149.038 139.855C145.201 141.763 144.382 145.5 146.188 149.134C148.003 152.786 151.477 154.389 155.314 152.482ZM154.079 149.997C151.864 151.098 150.281 149.735 149.23 147.622C148.189 145.526 148.059 143.441 150.273 142.34C152.47 141.248 154.071 142.602 155.113 144.698C156.163 146.811 156.276 148.905 154.079 149.997ZM154.561 137.448L163.644 148.004L166.687 146.492L164.748 138.054L164.782 138.038L170.338 144.678L173.38 143.165L170.45 129.55L167.407 131.063L169.927 140.034L169.893 140.05L163.942 132.785L161.068 134.213L163.267 143.344L163.233 143.361L157.603 135.935L154.561 137.448Z" fill="black"/>
</g>
<defs>
<clipPath id="clip0_106_378">
<rect width="208.423" height="208.423" fill="white" transform="translate(0 92.7659) rotate(-26.4287)"/>
</clipPath>
</defs>
</svg>
