<svg width="380" height="165" viewBox="0 0 380 165" fill="none" xmlns="http://www.w3.org/2000/svg">
<path d="M241.94 20.6709C285.551 26.709 333.604 43.0065 361.414 68.0504C387.898 91.8321 387.154 123.281 352.222 143.446C318.402 162.932 267.816 165.037 226.92 164.897C183.897 164.725 140.162 160.902 99.5771 151.214C64.2417 142.796 23.6754 129.405 6.31138 104.327C-5.65399 86.9497 0.452437 67.4553 15.7457 51.7899C55.3251 11.2779 137.379 -5.2081 201.978 1.42446C246.122 5.93963 284.419 23.1245 310.999 48.1194C313.519 50.4916 307.96 52.9865 305.588 50.6485C253.585 1.80892 161.57 -6.33363 84.5791 18.742C55.1101 28.3574 25.8671 43.9695 12.1353 65.5594C-1.77006 87.43 11.9499 108.37 35.6458 122.581C70.3095 143.358 118.497 152.417 162.804 156.861C209.044 161.539 258.614 162.91 304.561 154.359C325.231 150.517 345.525 143.783 359.817 132.011C376.958 117.826 378.012 98.5323 366.956 82.5235C345.493 51.2812 288.238 32.3197 242.51 25.4915L240.374 25.1861C236.286 24.6343 237.852 20.106 241.94 20.6709Z" fill="#7EFFC9"/>
</svg>
